PathFileType	4	(X/Y/Z)	9_2_73_p1_0-276.trc
DataRate	CameraRate	NumFrames	NumMarkers	Units	OrigDataRate	OrigDataStartFrame	OrigNumFrames
60.0	60.0	7	27	m	60.0	34	277
Frame#	Time	RHip			RKnee			RAnkle			RBigToe			RSmallToe			RHeel			LHip			LKnee			LAnkle			LBigToe			LSmallToe			LHeel			Neck			Head			Nose			RShoulder			RElbow			RWrist			RThumb			RIndex			RPinky			LShoulder			LElbow			LWrist			LThumb			LIndex			LPinky			
		X1	Y1	Z1	X2	Y2	Z2	X3	Y3	Z3	X4	Y4	Z4	X5	Y5	Z5	X6	Y6	Z6	X7	Y7	Z7	X8	Y8	Z8	X9	Y9	Z9	X10	Y10	Z10	X11	Y11	Z11	X12	Y12	Z12	X13	Y13	Z13	X14	Y14	Z14	X15	Y15	Z15	X16	Y16	Z16	X17	Y17	Z17	X18	Y18	Z18	X19	Y19	Z19	X20	Y20	Z20	X21	Y21	Z21	X22	Y22	Z22	X23	Y23	Z23	X24	Y24	Z24	X25	Y25	Z25	X26	Y26	Z26	X27	Y27	Z27	
34	0.5666666666666667	0.3003065122051334	0.4991315863376224	1.1585419824654684	0.2790352944515428	0.5130429692794619	1.5106503181689002	0.26989347667430935	0.6590661978013643	1.9285294003164253	0.281227850105442	0.4084989483666752	1.8851605100250612	0.33192535819802244	0.4563669246597373	1.8898272541496026	0.269448445151575	0.7031112284286845	1.9802393487177672	0.0813162259454195	0.4924648792761118	1.1589525811482333	0.09552814643204857	0.5259348086555634	1.503369675562829	0.08322779667500459	0.5805024264029378	1.9021548340660184	0.11238201946173955	0.3479257258896766	1.8544767802698239	0.06338448112278079	0.39934498241721894	1.859794617121904	0.07968624541196546	0.6411280456873203	1.967521532605179	0.20656984353676036	0.4243118200408556	0.6107839311066184	0.2257962798103072	0.35323214562011174	0.3498476353525992	0.2164362991972705	0.2967338508563184	0.4980337691182376	0.3542386409746276	0.4104827281631728	0.6984802686271712	0.4044708740806107	0.43388550832867556	0.9499081818318348	0.3012855030937328	0.3030155503321967	1.0865577908001551	0.18861416738667988	0.2852521513873663	1.159090138757518	0.181465305202592	0.2771087739726844	1.1843008657357796	0.20621679273100685	0.2949203431725272	1.2045836745384928	0.05036305653267793	0.4103453161969157	0.6905868207981166	0.0011700386088839244	0.40199047904428625	0.9443274263153871	0.10830042314575901	0.30171734146281964	1.1110914255341302	0.19771202423607714	0.30060536102561536	1.1540306550500283	0.19685896757388455	0.30524880238362734	1.19993696348782	0.19085319974902473	0.3157007340439243	1.216274090079441
35	0.5833333333333334	0.30021300399406814	0.4988382690880537	1.1584288348092715	0.2793398468960417	0.5113632039629407	1.5140557832670019	0.2674553574825824	0.6472428912326552	1.9270579068910827	0.28107108683542176	0.4084730666168746	1.885264611698065	0.32391659399201556	0.4421387317126756	1.8827940278298727	0.27061724168099693	0.7056472572847482	1.9864278366624957	0.08111546533947621	0.4906648759715108	1.1622670121452998	0.09548102176674118	0.5259824933042191	1.503390795513021	0.08320382581974525	0.5805750726016722	1.9022307939538716	0.11463672079673824	0.3603949573376637	1.861059315834595	0.05920490964574144	0.39812797520032583	1.8594430487210893	0.07968282039093705	0.6412349770145231	1.9677766463715836	0.20662076922172923	0.42435772380122294	0.6108105134895011	0.22581284738055374	0.3532447763813542	0.3498250915089796	0.21648842760077894	0.2966178491670299	0.4980764505243967	0.3580741673980053	0.41229809692248376	0.6986014943246154	0.40517670258800137	0.43519844181995065	0.9538368151458265	0.3048708022810225	0.30696143673404175	1.0991113786234896	0.18754500074038266	0.27517860331194743	1.1646111422605023	0.1828977518907511	0.26922210579184985	1.1887091595209311	0.20578606970465463	0.2955043565246919	1.2084773128325401	0.05034664098038011	0.4102796720629116	0.6905383776226456	-0.004728632548437612	0.41547530925263476	0.9476670552395561	0.10802537045178395	0.3018599439555457	1.1112081525836102	0.19751946317182573	0.29846717545873086	1.1571560632232085	0.20105373058403767	0.29272806177587013	1.1962183837562934	0.1880886007540683	0.30482217217790897	1.2135630153308317
36	0.6	0.2961745742247817	0.4967610978436596	1.1581824467252047	0.2742768243916461	0.5063652498172814	1.5080254615179403	0.2699714093602613	0.659078321924546	1.9284455373385008	0.2810634345615972	0.4086820306850442	1.8855546578147524	0.32791191240636497	0.45394258496407547	1.8929095720499995	0.2646275890113679	0.7188298458051079	1.9888943299037354	0.07841266032588644	0.4778407481514216	1.1588735858489736	0.09595096356782598	0.5243046199731823	1.5062880478060676	0.08432564364906248	0.5797516662028916	1.8975197464235314	0.11475197119523022	0.3604432789029783	1.8610613075047358	0.06567162981344224	0.41276687093449826	1.8669676251265588	0.07967423775823397	0.6413633411957737	1.9675120858695636	0.20664563116324902	0.42427607729203237	0.610881991534462	0.225815864150515	0.3531543910758897	0.3496571712054124	0.216653752381674	0.29650271202655676	0.4981008775632778	0.3619081268541694	0.42365811132362236	0.7000533465179098	0.40426464733391754	0.4346774437916386	0.9535398217502861	0.3086449769854301	0.3092410350938655	1.1036406361219244	0.19716246430664494	0.2799873253691984	1.1761153510321907	0.19255490982009146	0.2932891978536485	1.2002898128802042	0.2140428190011816	0.297728695319093	1.2091704745233107	0.05026208284961094	0.4104308923151494	0.6907893730808319	-0.004890461023735427	0.4151396262360449	0.9476299387753584	0.10566150175530366	0.2899258156724842	1.1115708311800392	0.19614647972013036	0.29621589094491946	1.1614769949859374	0.19639127705516507	0.3037333200314851	1.2079400949105736	0.18690236598812732	0.32958904772587505	1.229124438871549
37	0.6166666666666667	0.29627838382034005	0.49559837061015194	1.1614673088673795	0.27365377997403717	0.5077896812936087	1.504232257165491	0.2700006143481654	0.6590248328666632	1.928454957243914	0.2810901166904768	0.4085691392988983	1.8856084572648617	0.3244529200704638	0.44062899159629426	1.8863067050164612	0.2696320074455428	0.7019872830530025	1.9798289737855517	0.0783132074240892	0.47743975857949034	1.1586408777722232	0.09927558224497297	0.5279977259013258	1.5037956656299547	0.08318771100974541	0.5808136470082438	1.9023141849314533	0.11477421931395818	0.36056472921693533	1.8611418516490765	0.06573076411974356	0.41296676711475044	1.8668668591516795	0.08224502474210378	0.6544424749550235	1.9745257439101966	0.2066902101273727	0.4243550373935489	0.6108823780524687	0.2258181898472789	0.3532235767893846	0.34968808930895723	0.21658201733758284	0.2966029310975729	0.498087190337804	0.36574845443728543	0.4257255717288082	0.7002523407803779	0.4084394385450203	0.4220709138562712	0.9540020608241807	0.31237691186557354	0.31145024228511664	1.108090392715455	0.1946787391548455	0.29140237092945215	1.1854271487020842	0.1933573264424425	0.2944255690929468	1.2086300525376796	0.22560168455058993	0.30040544412386067	1.2169790989399847	0.05025193396413786	0.4105722212647988	0.69094427931624	-0.00503765258885748	0.41482564330457944	0.9476245497673267	0.10019598115117398	0.3029173398767027	1.111997801626056	0.19525146353143497	0.2962018864778821	1.1627642401995133	0.1959632136788516	0.30305466508385903	1.2117140124419967	0.16786100388181663	0.36695121565385924	1.2460167977888221
38	0.6333333333333333	0.295725601568162	0.49596885236562294	1.1659946240853358	0.27453286776591657	0.5067693457459524	1.4992004152185747	0.27009469416889653	0.6591225764528766	1.9285213682556948	0.28101990711233377	0.408412530560865	1.8854798027304245	0.32418682398627124	0.4405732756297353	1.886089019953842	0.2701719439451275	0.7032720913113637	1.9801634044570833	0.0782321017249764	0.47712452889759915	1.1584364668656584	0.0992936309972044	0.5278620333278546	1.5035350520205435	0.08433627934536557	0.5799258301731215	1.8976237093190198	0.11473131717657364	0.3606272440555596	1.861186945666329	0.06010768895778455	0.4265371092409957	1.874805542547143	0.08231765924249287	0.6547486355597144	1.9751577324452319	0.2066910330556106	0.4243753976976926	0.6109226266912525	0.2258347703574201	0.3531900392273879	0.34972813232829747	0.216621295302097	0.2964504923085033	0.49810878301385414	0.3660317027948389	0.4249976456599015	0.7034839930858029	0.4116555424655893	0.4339021746390257	0.9567138137035011	0.3200699456934007	0.32306323797424574	1.1149593718295001	0.20151903693114173	0.2941736591943421	1.1892743395345426	0.2054924272476875	0.2955386800281022	1.208851842538351	0.23873178465173633	0.3098393164297095	1.2280504793304172	0.04990649408018653	0.4092317498386155	0.687592893793898	-0.012642802378675821	0.41568736580592414	0.9480958456660518	0.09992255712491266	0.30290417576054096	1.1121517389134454	0.1953311236370188	0.30174617168545714	1.1791900562060682	0.1962317300826608	0.30323235884877325	1.211881940402396	0.16077706240956002	0.3528188381766845	1.248895511814376
39	0.65	0.2954946020704547	0.4971238767503181	1.1624800523308592	0.27443000751039126	0.5086965350749784	1.4956731991026433	0.27113231081664746	0.6616529218239954	1.9341423389071863	0.281015883193689	0.4086531105724023	1.8853433700663662	0.32769645820448123	0.45382183167609746	1.8927142964486385	0.2655992550566845	0.7182925426078414	1.9927010003124277	0.07741202685980235	0.47890377372474635	1.1587223830209579	0.09984052674953739	0.5310955609793727	1.506167015640197	0.08437012958848	0.5798975376072818	1.8975656464489485	0.11480722560636984	0.36082241361948014	1.8611965957012244	0.06019201387375823	0.42658484066036173	1.8745199499744944	0.08344532667127702	0.6536695520736272	1.9687350611871175	0.20666931511022135	0.4243195719205835	0.6109750099677228	0.22591536687902933	0.3529293731274844	0.34656033216820525	0.21700085087369522	0.2959182185829682	0.5014105656638098	0.3659298158743879	0.4248031441818971	0.7033668274162169	0.4111028966662284	0.43229611395805645	0.9527535858387898	0.324616225929124	0.31171142137131974	1.1119060178314362	0.2063724373313651	0.29468498822603106	1.1894386104957324	0.20957140374275093	0.2967745240311177	1.209718254090763	0.24459859249650368	0.3097778243273105	1.232940289164153	0.04972017056449959	0.4108733432318697	0.6950623260627019	-0.010777001153137986	0.42768031189513905	0.9506022708220435	0.09954963946791666	0.3029390436154864	1.1121422531237262	0.19053351158289372	0.2997822792052522	1.179057568819491	0.19239016219254307	0.30033980543913413	1.2149403514623829	0.14813449989740726	0.36242706198264174	1.2514590042165092
40	0.6666666666666666	0.2959354523616855	0.49674787176274965	1.157877872214638	0.27285375258187955	0.5054736333754298	1.4992709390181225	0.2665550474638458	0.6449290705546019	1.9214928772184077	0.2810266436656968	0.40852904613503016	1.8852512446615883	0.3277775661000343	0.45371755899560623	1.8927165289703247	0.2698197031046989	0.7022319218349955	1.979775131731963	0.07802357334469358	0.478237817738877	1.1544409231453883	0.09928368315724972	0.528087114416645	1.5032919250476835	0.08432628976670921	0.5796610012917034	1.8975159068175136	0.11483859135785215	0.36076691860984705	1.8611386134632433	0.06578492366359968	0.4129207981213708	1.8668742042161364	0.08338740956977461	0.6534267610882929	1.9682098584853032	0.20667063302476937	0.42451197653157086	0.6110697337203802	0.22590788046004967	0.3528841310414681	0.34656178475660376	0.21698786515608778	0.29561042223199196	0.5014409484915299	0.36604138759205057	0.4251324435207428	0.7035506036306789	0.41508261491809484	0.4461254488419659	0.9594561767414269	0.32815887818783934	0.3230231489927357	1.1153091059887015	0.2092457990910434	0.30907565472468085	1.2015704444857196	0.21027723403179474	0.3057256670728168	1.2158352589724963	0.2590127055741355	0.3335503189935431	1.24395497318642	0.04950516201397422	0.40961874160769196	0.6915344566911444	-0.011002864648524374	0.4276456242538268	0.9505938980912091	0.09501683675793808	0.3011125028890616	1.1154094827014736	0.19025762574869423	0.3022645894989374	1.187372228665058	0.18991665279252498	0.28978647581071915	1.2159343096960766	0.14297161005631254	0.31370849158341	1.2332318644007283
